<svg xmlns="http://www.w3.org/2000/svg" xmlns:xlink="http://www.w3.org/1999/xlink" version="1.1" id="Layer_1" x="0px" y="0px" style="enable-background:new 0 0 1731.31 1400;" xml:space="preserve" viewBox="384.03 114.52 952.42 894.39"><style type="text/css">	.st0{fill:#FFFFFF;}</style><g>	<path class="st0" d="M384.03,988.17c54.17-12.55,106.93-23.63,157.03-44.66c21.58-9.05,41.86-20.31,60.24-34.75   c43.3-34.03,52.51-81.42,24.6-128.92c-16.21-27.59-36.37-52.83-49.25-82.42c-54.98-126.29-32.25-241.36,50.29-347.82   c101.24-130.56,236.93-199.4,397.92-226.14c112.45-18.68,234.67-4.63,311.59,10.71c-3.15,7.54-9.93,6.17-15.44,7.18   c-52.07,9.56-103.25,22.13-151.11,45.58c-22.74,11.14-43.63,24.95-61.04,43.6c-29.37,31.46-34.8,67.36-14.48,105.54   c7.63,14.33,17.52,27.53,27,40.8c80.38,112.5,79.61,261.24,0.07,374.03c-101.12,143.38-242.83,217.86-412.29,245.78   c-50.8,8.37-102.09,13.94-153.84,11.76c-54.02-2.28-107.53-9.39-160.99-16.92C390.81,991.02,387.46,989.32,384.03,988.17z    M955.5,565.86c-0.17-51.44-39.38-91.38-90.03-91.69c-51.13-0.31-93.4,39.58-93.61,88.32c-0.22,50.8,41.94,94.08,91.16,93.58   C913.46,655.56,955.65,614.4,955.5,565.86z"></path></g></svg>