<?xml version="1.0" encoding="utf-8"?>
<!-- Generator: Adobe Illustrator 24.3.0, SVG Export Plug-In . SVG Version: 6.00 Build 0)  -->
<svg version="1.1" id="Layer_1" xmlns="http://www.w3.org/2000/svg" xmlns:xlink="http://www.w3.org/1999/xlink" x="0px" y="0px"
	 viewBox="0 0 1731.31 1400" style="enable-background:new 0 0 1731.31 1400;" xml:space="preserve">
<style type="text/css">
	.st0{fill:#CC3333;}
</style>
<g>
	<path class="st0" d="M282.57,1246.89c-11.07,0-21.15-1.82-30.24-5.46c-9.1-3.64-16.91-8.94-23.42-15.92
		c-6.52-6.97-11.56-15.58-15.12-25.81c-3.56-10.23-5.34-21.94-5.34-35.13s2.01-24.9,6.03-35.13c4.01-10.23,9.44-18.83,16.26-25.81
		c6.82-6.97,14.78-12.28,23.88-15.92c9.1-3.64,18.8-5.46,29.11-5.46c6.52,0,12.39,0.46,17.62,1.36c5.23,0.91,9.78,1.97,13.64,3.18
		c3.87,1.22,7.01,2.43,9.44,3.64c2.42,1.21,4.09,2.12,5,2.73l-6.37,18.19c-1.36-0.91-3.34-1.89-5.91-2.96
		c-2.58-1.06-5.5-2.12-8.75-3.18c-3.26-1.06-6.82-1.93-10.69-2.62c-3.87-0.68-7.77-1.02-11.71-1.02c-8.34,0-15.84,1.44-22.51,4.32
		c-6.67,2.88-12.36,7.05-17.05,12.51c-4.7,5.46-8.3,12.09-10.8,19.9c-2.5,7.81-3.75,16.56-3.75,26.26c0,9.4,1.1,17.96,3.3,25.7
		c2.2,7.73,5.49,14.36,9.89,19.9c4.39,5.54,9.89,9.82,16.49,12.85c6.59,3.03,14.29,4.55,23.08,4.55c10.15,0,18.57-1.06,25.24-3.18
		c6.67-2.12,11.67-4.02,15.01-5.69l5.68,18.19c-1.06,0.76-2.96,1.71-5.68,2.84s-6.14,2.24-10.23,3.3s-8.87,1.97-14.33,2.73
		C294.85,1246.51,288.93,1246.89,282.57,1246.89z"/>
	<path class="st0" d="M336.91,1265.53c1.67,0.76,3.83,1.48,6.48,2.16c2.65,0.68,5.27,1.02,7.84,1.02c8.33,0,14.86-1.86,19.56-5.57
		c4.7-3.72,8.94-9.74,12.73-18.08c-9.55-18.19-18.46-37.48-26.72-57.87c-8.26-20.39-15.12-41.04-20.58-61.96h22.74
		c1.67,6.82,3.67,14.18,6.03,22.06c2.35,7.88,4.96,16,7.85,24.33c2.88,8.34,5.99,16.68,9.32,25.01c3.33,8.34,6.82,16.37,10.46,24.1
		c5.76-15.92,10.76-31.68,15.01-47.3c4.24-15.61,8.26-31.68,12.05-48.21h21.83c-5.46,22.28-11.52,43.7-18.19,64.24
		c-6.67,20.54-13.87,39.76-21.6,57.64c-3.03,6.82-6.18,12.7-9.44,17.62c-3.26,4.92-6.86,8.98-10.8,12.17
		c-3.94,3.18-8.38,5.53-13.3,7.05c-4.93,1.51-10.5,2.27-16.71,2.27c-1.67,0-3.41-0.11-5.23-0.34c-1.82-0.23-3.6-0.53-5.34-0.91
		c-1.75-0.38-3.34-0.8-4.78-1.25c-1.44-0.46-2.47-0.83-3.07-1.14L336.91,1265.53z"/>
	<path class="st0" d="M515.19,1246.2c-9.55,0-17.93-1.52-25.13-4.55c-7.2-3.03-13.27-7.28-18.19-12.73
		c-4.93-5.46-8.61-11.94-11.03-19.44c-2.43-7.5-3.64-15.8-3.64-24.9c0-9.09,1.33-17.43,3.98-25.01c2.65-7.58,6.4-14.13,11.26-19.67
		c4.85-5.53,10.8-9.85,17.85-12.96c7.05-3.11,14.89-4.66,23.53-4.66c5.3,0,10.61,0.46,15.92,1.36c5.3,0.91,10.38,2.35,15.23,4.32
		l-4.77,17.96c-3.18-1.51-6.86-2.73-11.03-3.64c-4.17-0.91-8.6-1.36-13.3-1.36c-11.82,0-20.88,3.72-27.17,11.14
		c-6.29,7.43-9.44,18.27-9.44,32.52c0,6.37,0.72,12.21,2.16,17.51c1.44,5.31,3.71,9.86,6.82,13.64c3.11,3.79,7.08,6.71,11.94,8.75
		c4.85,2.05,10.76,3.07,17.74,3.07c5.61,0,10.69-0.53,15.23-1.59c4.55-1.06,8.11-2.2,10.69-3.41l2.96,17.74
		c-1.21,0.76-2.96,1.48-5.23,2.16c-2.27,0.68-4.85,1.29-7.73,1.82c-2.88,0.53-5.95,0.98-9.21,1.36
		C521.36,1246.01,518.22,1246.2,515.19,1246.2z"/>
	<path class="st0" d="M605,1245.75c-13.04-0.31-22.28-3.11-27.74-8.41c-5.46-5.3-8.19-13.57-8.19-24.79v-141.89l21.15-3.64v142.12
		c0,3.49,0.3,6.37,0.91,8.64c0.6,2.27,1.59,4.09,2.96,5.46c1.37,1.36,3.18,2.39,5.46,3.07c2.27,0.68,5.08,1.25,8.41,1.71
		L605,1245.75z"/>
	<path class="st0" d="M735.98,1184.35c0,9.4-1.36,17.89-4.09,25.47c-2.73,7.58-6.56,14.1-11.48,19.56
		c-4.93,5.46-10.8,9.66-17.62,12.62s-14.25,4.43-22.28,4.43c-8.04,0-15.46-1.48-22.28-4.43s-12.7-7.16-17.62-12.62
		c-4.93-5.46-8.75-11.97-11.48-19.56c-2.73-7.58-4.09-16.07-4.09-25.47c0-9.25,1.37-17.7,4.09-25.35
		c2.73-7.65,6.55-14.21,11.48-19.67c4.92-5.46,10.8-9.66,17.62-12.62s14.25-4.43,22.28-4.43c8.03,0,15.46,1.48,22.28,4.43
		s12.69,7.16,17.62,12.62c4.92,5.46,8.75,12.02,11.48,19.67C734.61,1166.66,735.98,1175.11,735.98,1184.35z M713.92,1184.35
		c0-13.34-3-23.91-8.98-31.72c-5.99-7.81-14.14-11.71-24.44-11.71c-10.31,0-18.46,3.9-24.44,11.71c-5.99,7.81-8.98,18.38-8.98,31.72
		c0,13.34,2.99,23.91,8.98,31.72c5.99,7.81,14.13,11.71,24.44,11.71c10.31,0,18.45-3.9,24.44-11.71
		C710.93,1208.27,713.92,1197.7,713.92,1184.35z"/>
	<path class="st0" d="M765.77,1128.64c4.85-1.21,11.29-2.5,19.33-3.87c8.03-1.36,17.28-2.05,27.74-2.05c9.4,0,17.2,1.33,23.42,3.98
		c6.21,2.65,11.18,6.37,14.89,11.14c3.71,4.78,6.33,10.5,7.84,17.17c1.51,6.67,2.27,14.02,2.27,22.06v66.4h-21.15v-61.85
		c0-7.28-0.49-13.49-1.48-18.65c-0.99-5.15-2.61-9.32-4.89-12.51c-2.27-3.18-5.31-5.49-9.1-6.93c-3.79-1.44-8.49-2.16-14.1-2.16
		c-2.27,0-4.63,0.08-7.05,0.23c-2.43,0.15-4.74,0.34-6.94,0.57c-2.2,0.23-4.17,0.49-5.91,0.8c-1.75,0.31-3,0.53-3.75,0.68v99.82
		h-21.15V1128.64z"/>
	<path class="st0" d="M889.69,1184.58c0-10.46,1.51-19.59,4.55-27.4c3.03-7.81,7.05-14.29,12.05-19.44c5-5.15,10.76-9.02,17.28-11.6
		c6.52-2.58,13.19-3.87,20.01-3.87c15.92,0,28.12,4.97,36.61,14.89c8.49,9.93,12.73,25.05,12.73,45.36c0,0.91,0,2.08,0,3.52
		c0,1.44-0.08,2.77-0.23,3.98h-80.95c0.91,12.28,4.47,21.6,10.69,27.97c6.21,6.37,15.92,9.55,29.11,9.55
		c7.43,0,13.68-0.64,18.76-1.93c5.08-1.29,8.9-2.54,11.48-3.75l2.96,17.74c-2.58,1.36-7.09,2.81-13.53,4.32
		c-6.45,1.51-13.76,2.27-21.94,2.27c-10.31,0-19.21-1.56-26.72-4.66c-7.5-3.11-13.68-7.39-18.53-12.85
		c-4.85-5.46-8.45-11.94-10.8-19.44C890.86,1201.75,889.69,1193.53,889.69,1184.58z M970.87,1172.98c0.15-9.55-2.24-17.4-7.16-23.53
		c-4.93-6.14-11.71-9.21-20.35-9.21c-4.85,0-9.13,0.95-12.85,2.84c-3.72,1.9-6.86,4.36-9.44,7.39c-2.58,3.03-4.59,6.52-6.03,10.46
		c-1.44,3.94-2.39,7.96-2.84,12.05H970.87z"/>
	<path class="st0" d="M1213.94,1164.57c0,13.64-2.12,25.55-6.37,35.7c-4.25,10.16-10.27,18.57-18.08,25.24
		c-7.81,6.67-17.32,11.67-28.54,15.01c-11.22,3.33-23.8,5-37.75,5c-6.37,0-13.8-0.27-22.28-0.8c-8.49-0.53-16.83-1.63-25.01-3.3
		v-153.49c8.19-1.51,16.71-2.54,25.58-3.07c8.87-0.53,16.49-0.8,22.85-0.8c13.49,0,25.73,1.52,36.72,4.55
		c10.99,3.03,20.43,7.81,28.31,14.33c7.88,6.52,13.95,14.86,18.19,25.01C1211.82,1138.12,1213.94,1150.32,1213.94,1164.57z
		 M1111.39,1214.6c1.67,0.15,3.6,0.27,5.8,0.34c2.2,0.08,4.81,0.11,7.84,0.11c17.74,0,30.89-4.47,39.45-13.42
		c8.56-8.94,12.85-21.3,12.85-37.06c0-16.52-4.09-29.03-12.28-37.52c-8.19-8.49-21.15-12.73-38.88-12.73c-2.43,0-4.93,0.04-7.5,0.11
		c-2.58,0.08-5,0.27-7.28,0.57V1214.6z"/>
	<path class="st0" d="M1381.53,1164.57c0,13.64-2.12,25.55-6.37,35.7c-4.25,10.16-10.27,18.57-18.08,25.24
		c-7.81,6.67-17.32,11.67-28.54,15.01c-11.22,3.33-23.8,5-37.75,5c-6.37,0-13.8-0.27-22.28-0.8c-8.49-0.53-16.83-1.63-25.01-3.3
		v-153.49c8.19-1.51,16.71-2.54,25.58-3.07c8.87-0.53,16.49-0.8,22.85-0.8c13.49,0,25.73,1.52,36.72,4.55
		c10.99,3.03,20.43,7.81,28.31,14.33c7.88,6.52,13.95,14.86,18.19,25.01C1379.41,1138.12,1381.53,1150.32,1381.53,1164.57z
		 M1278.98,1214.6c1.67,0.15,3.6,0.27,5.8,0.34c2.2,0.08,4.81,0.11,7.85,0.11c17.74,0,30.89-4.47,39.45-13.42
		c8.56-8.94,12.85-21.3,12.85-37.06c0-16.52-4.09-29.03-12.28-37.52c-8.19-8.49-21.15-12.73-38.88-12.73c-2.43,0-4.93,0.04-7.5,0.11
		c-2.58,0.08-5,0.27-7.28,0.57V1214.6z"/>
	<path class="st0" d="M1454.07,1216.42c5,0,9.13-0.42,12.39-1.25c3.26-0.83,5.87-1.97,7.84-3.41c1.97-1.44,3.33-3.14,4.09-5.12
		c0.76-1.97,1.14-4.17,1.14-6.59c0-5.15-2.43-9.44-7.28-12.85c-4.85-3.41-13.19-7.08-25.01-11.03c-5.16-1.82-10.31-3.9-15.46-6.25
		c-5.16-2.35-9.78-5.3-13.87-8.87c-4.09-3.56-7.43-7.88-10-12.96c-2.58-5.08-3.87-11.25-3.87-18.53c0-7.28,1.37-13.83,4.09-19.67
		c2.73-5.83,6.59-10.8,11.6-14.89c5-4.09,11.06-7.24,18.19-9.44c7.12-2.2,15.16-3.3,24.1-3.3c10.61,0,19.78,1.14,27.51,3.41
		s14.1,4.78,19.1,7.5l-10.23,27.97c-4.4-2.27-9.29-4.28-14.67-6.03c-5.38-1.74-11.86-2.62-19.44-2.62c-8.49,0-14.59,1.18-18.3,3.52
		c-3.72,2.35-5.57,5.95-5.57,10.8c0,2.88,0.68,5.31,2.05,7.28c1.36,1.97,3.3,3.75,5.8,5.34c2.5,1.59,5.38,3.03,8.64,4.32
		c3.26,1.29,6.86,2.62,10.8,3.98c8.19,3.03,15.31,6.03,21.37,8.98c6.06,2.96,11.1,6.41,15.12,10.35c4.01,3.94,7.01,8.57,8.98,13.87
		c1.97,5.31,2.96,11.75,2.96,19.33c0,14.71-5.16,26.11-15.46,34.22c-10.31,8.11-25.85,12.17-46.61,12.17
		c-6.97,0-13.27-0.42-18.87-1.25c-5.61-0.83-10.57-1.86-14.89-3.07c-4.32-1.21-8.04-2.5-11.14-3.87c-3.11-1.36-5.72-2.65-7.85-3.87
		l10.01-28.2c4.7,2.58,10.5,4.89,17.39,6.94C1435.61,1215.39,1444.06,1216.42,1454.07,1216.42z"/>
</g>
<g>
	<path class="st0" d="M384.03,988.17c54.17-12.55,106.93-23.63,157.03-44.66c21.58-9.05,41.86-20.31,60.24-34.75
		c43.3-34.03,52.51-81.42,24.6-128.92c-16.21-27.59-36.37-52.83-49.25-82.42c-54.98-126.29-32.25-241.36,50.29-347.82
		c101.24-130.56,236.93-199.4,397.92-226.14c112.45-18.68,234.67-4.63,311.59,10.71c-3.15,7.54-9.93,6.17-15.44,7.18
		c-52.07,9.56-103.25,22.13-151.11,45.58c-22.74,11.14-43.63,24.95-61.04,43.6c-29.37,31.46-34.8,67.36-14.48,105.54
		c7.63,14.33,17.52,27.53,27,40.8c80.38,112.5,79.61,261.24,0.07,374.03c-101.12,143.38-242.83,217.86-412.29,245.78
		c-50.8,8.37-102.09,13.94-153.84,11.76c-54.02-2.28-107.53-9.39-160.99-16.92C390.81,991.02,387.46,989.32,384.03,988.17z
		 M955.5,565.86c-0.17-51.44-39.38-91.38-90.03-91.69c-51.13-0.31-93.4,39.58-93.61,88.32c-0.22,50.8,41.94,94.08,91.16,93.58
		C913.46,655.56,955.65,614.4,955.5,565.86z"/>
</g>
</svg>
