<?xml version="1.0" encoding="UTF-8" standalone="no"?>
<svg
   xmlns:dc="http://purl.org/dc/elements/1.1/"
   xmlns:cc="http://creativecommons.org/ns#"
   xmlns:rdf="http://www.w3.org/1999/02/22-rdf-syntax-ns#"
   xmlns:svg="http://www.w3.org/2000/svg"
   xmlns="http://www.w3.org/2000/svg"
   xmlns:sodipodi="http://sodipodi.sourceforge.net/DTD/sodipodi-0.dtd"
   xmlns:inkscape="http://www.inkscape.org/namespaces/inkscape"
   version="1.1"
   id="svg2"
   xml:space="preserve"
   width="985.37335"
   height="385.33334"
   viewBox="0 0 985.37335 385.33334"
   sodipodi:docname="Horizontal without Slogan FC.ai"><metadata
     id="metadata8"><rdf:RDF><cc:Work
         rdf:about=""><dc:format>image/svg+xml</dc:format><dc:type
           rdf:resource="http://purl.org/dc/dcmitype/StillImage" /></cc:Work></rdf:RDF></metadata><defs
     id="defs6"><clipPath
       clipPathUnits="userSpaceOnUse"
       id="clipPath18"><path
         d="M 0,289 H 739.03 V 0 H 0 Z"
         id="path16" /></clipPath></defs><sodipodi:namedview
     pagecolor="#ffffff"
     bordercolor="#666666"
     borderopacity="1"
     objecttolerance="10"
     gridtolerance="10"
     guidetolerance="10"
     inkscape:pageopacity="0"
     inkscape:pageshadow="2"
     inkscape:window-width="640"
     inkscape:window-height="480"
     id="namedview4" /><g
     id="g10"
     inkscape:groupmode="layer"
     inkscape:label="Horizontal without Slogan FC"
     transform="matrix(1.3333333,0,0,-1.3333333,0,385.33333)"><g
       id="g12"><g
         id="g14"
         clip-path="url(#clipPath18)"><g
           id="g20"
           transform="translate(265.0185,178.2061)"><path
             d="m 0,0 h -1.312 -21.231 l -41.111,-67.482 h 24.56 c 0,0 24.323,42.73 27.826,48.881 3.519,-6.146 27.983,-48.881 27.983,-48.881 h 24.383 z"
             style="fill:#293133;fill-opacity:1;fill-rule:nonzero;stroke:none"
             id="path22" /></g><g
           id="g24"
           transform="translate(242.3871,134.9287)"><path
             d="M 0,0 H 22.881 L 11.358,-16.627 Z"
             style="fill:#7f8385;fill-opacity:1;fill-rule:nonzero;stroke:none"
             id="path26" /></g><g
           id="g28"
           transform="translate(337.1537,164.9482)"><path
             d="m 0,0 h 10.409 c 21.677,-0.353 31.199,-2.39 31.199,-20.398 0,-18.242 -9.037,-20.204 -31.232,-20.576 l -10.376,0 z m 17.746,13.258 h -37.918 -2.339 v -67.482 h 40.257 c 39.041,0 47.239,18.392 47.239,33.826 0,15.354 -8.198,33.656 -47.239,33.656"
             style="fill:#293133;fill-opacity:1;fill-rule:nonzero;stroke:none"
             id="path30" /></g><g
           id="g32"
           transform="translate(432.6879,124.4937)"><path
             d="M 0,0 V 53.712 H -2.331 -22.658 V -13.77 H 51.376 V 0 Z"
             style="fill:#293133;fill-opacity:1;fill-rule:nonzero;stroke:none"
             id="path34" /></g><g
           id="g36"
           transform="translate(513.934,178.2061)"><path
             d="M 0,0 H -20.329 V -67.482 H 2.336 L 2.336,0 Z"
             style="fill:#293133;fill-opacity:1;fill-rule:nonzero;stroke:none"
             id="path38" /></g><g
           id="g40"
           transform="translate(640.5975,178.2061)"><path
             d="M 0,0 H -20.505 V -67.482 H 2.334 L 2.334,0 Z"
             style="fill:#293133;fill-opacity:1;fill-rule:nonzero;stroke:none"
             id="path42" /></g><g
           id="g44"
           transform="translate(587.8558,178.2061)"><path
             d="M 0,0 V -40.983 C -6.591,-34.138 -39.467,0 -39.467,0 h -0.815 -18.172 -2.335 v -67.482 h 21.263 v 41.135 c 6.598,-6.878 39.463,-41.135 39.463,-41.135 H 21.44 L 21.44,0 Z"
             style="fill:#293133;fill-opacity:1;fill-rule:nonzero;stroke:none"
             id="path46" /></g><g
           id="g48"
           transform="translate(670.6425,150.1016)"><path
             d="M 0,0 C 4.081,2.924 39.205,28.104 39.205,28.104 H 31.931 10.147 L -26.225,-0.966 11.558,-39.377 H 42.82 C 42.82,-39.377 3.799,-3.5 0,0"
             style="fill:#293133;fill-opacity:1;fill-rule:nonzero;stroke:none"
             id="path50" /></g><g
           id="g52"
           transform="translate(25.5668,72.8486)"><path
             d="M 0,0 C 42.421,40.59 93.995,40.59 136.527,0 L 108.423,58.997 24.015,50.495 Z"
             style="fill:#d03439;fill-opacity:1;fill-rule:nonzero;stroke:none"
             id="path54" /></g><g
           id="g56"
           transform="translate(54.3173,133.2461)"><path
             d="M 0,0 H 78.917 L 72.894,12.813 2.047,4.201 Z"
             style="fill:#d03439;fill-opacity:1;fill-rule:nonzero;stroke:none"
             id="path58" /></g><g
           id="g60"
           transform="translate(61.205,147.7832)"><path
             d="M 0,0 H 65.142 L 59.33,12.385 2.048,4.197 Z"
             style="fill:#d03439;fill-opacity:1;fill-rule:nonzero;stroke:none"
             id="path62" /></g><g
           id="g64"
           transform="translate(68.0966,162.2109)"><path
             d="M 0,0 H 51.465 L 25.735,53.94 Z"
             style="fill:#d03439;fill-opacity:1;fill-rule:nonzero;stroke:none"
             id="path66" /></g><g
           id="g68"
           transform="translate(163.6596,82.3613)"><path
             d="m 0,0 c 0,4.412 3.591,8.013 8.023,8.013 4.416,0 8.014,-3.601 8.014,-8.013 0,-4.42 -3.598,-8.022 -8.014,-8.022 C 3.591,-8.022 0,-4.42 0,0 m -1.498,0 c 0,-5.243 4.264,-9.513 9.521,-9.513 5.237,0 9.505,4.27 9.505,9.513 0,5.241 -4.268,9.505 -9.505,9.505 C 2.766,9.505 -1.498,5.241 -1.498,0"
             style="fill:#293133;fill-opacity:1;fill-rule:nonzero;stroke:none"
             id="path70" /></g><g
           id="g72"
           transform="translate(169.8397,82.9907)"><path
             d="m 0,0 h 1.481 c 0.972,0 1.58,0.042 1.822,0.115 0.245,0.084 0.42,0.224 0.565,0.424 0.14,0.196 0.201,0.443 0.201,0.736 0,0.342 -0.093,0.601 -0.27,0.818 C 3.62,2.291 3.372,2.425 3.04,2.479 2.881,2.498 2.387,2.515 1.58,2.515 H 0 Z m -2.005,-5.769 v 9.972 h 4.227 c 1.061,0 1.84,-0.092 2.323,-0.267 C 5.024,3.758 5.413,3.439 5.698,2.988 5.992,2.524 6.132,1.999 6.132,1.414 6.132,0.667 5.915,0.046 5.481,-0.437 5.042,-0.923 4.379,-1.234 3.51,-1.358 3.945,-1.608 4.311,-1.894 4.589,-2.199 4.877,-2.5 5.247,-3.041 5.733,-3.818 L 6.956,-5.769 H 4.545 L 3.091,-3.597 C 2.567,-2.82 2.222,-2.329 2.029,-2.13 1.843,-1.93 1.636,-1.784 1.424,-1.713 1.207,-1.646 0.875,-1.598 0.408,-1.598 H 0 v -4.171 z"
             style="fill:#293133;fill-opacity:1;fill-rule:nonzero;stroke:none"
             id="path74" /></g></g></g></g></svg>
