<svg width="200" height="74" viewBox="0 0 200 74" xmlns="http://www.w3.org/2000/svg">
    <defs>
        <linearGradient x1=".103%" y1="0%" x2="99.897%" y2="100%" id="a">
            <stop stop-color="#1450FF" offset="0%"/>
            <stop stop-color="#14B4FF" offset="100%"/>
        </linearGradient>
    </defs>
    <g fill-rule="nonzero" fill="none">
        <path d="M102.845 33.84v-5.128H88.868l13.714-15.459V8.388H82.327v5.129h13.24L81.8 28.975v4.865h21.045zm15.075.552c2.011 0 3.803-.244 5.375-.731 1.572-.488 2.91-1.143 4.01-1.966 1.102-.822 1.96-1.741 2.574-2.756.615-1.014.97-2.057 1.065-3.127h-6.272c-.048.415-.204.83-.467 1.246-.263.415-.654.803-1.173 1.162-.519.36-1.185.643-2 .851-.813.208-1.779.312-2.896.312-1.644 0-3.037-.332-4.178-.995s-2.007-1.622-2.598-2.876a8.964 8.964 0 0 1-.703-2.27l-.015-.09h20.566c.029-.159.05-.401.067-.727l.005-.112c.016-.384.024-.743.024-1.079 0-2.636-.543-4.949-1.628-6.938-1.086-1.99-2.63-3.543-4.633-4.662-2.003-1.118-4.377-1.677-7.123-1.677-2.665 0-5.027.555-7.086 1.665-2.06 1.11-3.667 2.657-4.825 4.638-1.157 1.981-1.735 4.29-1.735 6.926 0 2.573.57 4.857 1.711 6.855 1.142 1.997 2.734 3.555 4.777 4.673 2.043 1.118 4.429 1.678 7.158 1.678zm6.872-15.722h-14.09l.023-.107c.14-.627.337-1.21.593-1.747l.078-.16c.615-1.214 1.485-2.144 2.61-2.791 1.125-.648 2.454-.971 3.986-.971 1.548 0 2.825.3 3.83.899 1.006.599 1.756 1.382 2.251 2.348.408.796.647 1.638.72 2.527v.002zm21.683 15.65c.734 0 1.388-.056 1.963-.168.574-.112 1.013-.224 1.317-.336V28.88c-.224.096-.563.192-1.018.288a7.013 7.013 0 0 1-1.448.144c-1.07 0-1.748-.36-2.035-1.079-.288-.719-.431-1.67-.431-2.852V13.421h7.565V8.388h-7.565V0h-6.32v4.05c0 1.039-.037 1.85-.109 2.433-.072.583-.22 1.01-.443 1.282s-.574.443-1.053.515c-.479.072-1.133.108-1.963.108h-2.442v5.033h6.01v13.877c0 1.518.238 2.74.717 3.666.48.927 1.11 1.63 1.892 2.11.782.479 1.644.806 2.585.982.942.176 1.868.264 2.778.264zm18.905 0c.735 0 1.39-.056 1.964-.168.574-.112 1.013-.224 1.316-.336V28.88c-.223.096-.562.192-1.017.288a7.013 7.013 0 0 1-1.449.144c-1.069 0-1.747-.36-2.035-1.079-.287-.719-.43-1.67-.43-2.852V13.421h7.565V8.388h-7.565V0h-6.321v4.05c0 1.039-.036 1.85-.108 2.433-.072.583-.22 1.01-.443 1.282s-.574.443-1.053.515c-.479.072-1.133.108-1.963.108h-2.442v5.033h6.009v13.877c0 1.518.24 2.74.718 3.666.479.927 1.11 1.63 1.892 2.11.782.479 1.644.806 2.585.982.942.176 1.868.264 2.777.264zm19.744.048c1.98 0 3.799-.444 5.459-1.33a9.697 9.697 0 0 0 2.529-1.943l.057-.062v2.807h6.32V8.388h-6.32v2.991l-.119-.128a10.066 10.066 0 0 0-2.284-1.812l-.183-.104c-1.66-.919-3.48-1.378-5.459-1.378-1.548 0-3.056.271-4.525.815a11.69 11.69 0 0 0-3.95 2.444c-1.165 1.087-2.095 2.44-2.79 4.063-.694 1.621-1.04 3.519-1.04 5.692 0 2.268.338 4.242 1.017 5.92.678 1.677 1.6 3.07 2.765 4.181a11.424 11.424 0 0 0 3.95 2.48c1.469.544 2.993.816 4.573.816zm1.509-5.417a7.725 7.725 0 0 1-3.484-.815c-1.093-.543-1.98-1.402-2.657-2.576-.679-1.174-1.018-2.688-1.018-4.542 0-1.869.34-3.363 1.018-4.481.678-1.119 1.564-1.93 2.657-2.433a8.232 8.232 0 0 1 3.484-.755c1.117 0 2.174.24 3.172.72a5.907 5.907 0 0 1 2.43 2.156c.622.959.934 2.165.934 3.62v2.492c0 1.438-.308 2.652-.922 3.642-.615.991-1.42 1.734-2.418 2.23a7.09 7.09 0 0 1-3.196.742z" fill="#0A143C"/>
        <path d="M65.44 8.388v3.995c0 10.436-4.876 19.732-12.471 25.73 7.251 2.454 12.471 9.321 12.471 17.409 0 10.046-8.054 18.21-18.051 18.372l-.304.002H0v-3.994c0-10.436 4.876-19.733 12.472-25.73C5.22 41.717 0 34.85 0 26.761 0 16.716 8.054 8.552 18.052 8.391l.303-.003H65.44zM47.085 45.137H32.72c-12.174 0-22.294 8.802-24.356 20.396l-.063.374h38.784c5.616 0 10.19-4.466 10.37-10.044l.003-.17.002-.171c0-5.678-4.553-10.292-10.203-10.384l-.172-.001zm10.054-28.76H18.355c-5.73 0-10.374 4.65-10.374 10.385 0 5.679 4.552 10.293 10.203 10.384l.171.002H32.72c12.174 0 22.294-8.803 24.356-20.396l.063-.375z" fill="url(#a)"/>
        <path d="M187.43 47.661c2.57 0 4.797.56 6.68 1.678a11.427 11.427 0 0 1 4.358 4.59c1.021 1.94 1.532 4.15 1.532 6.626 0 .256-.008.591-.024 1.006l-.004.102c-.016.36-.039.605-.068.737h-21.452l.019.15c.161 1.218.494 2.31 1 3.277.741 1.422 1.799 2.517 3.171 3.284 1.373.767 3.001 1.15 4.884 1.15 1.341 0 2.506-.14 3.496-.42.99-.279 1.807-.654 2.454-1.126.646-.47 1.137-.986 1.472-1.545.336-.56.535-1.119.599-1.678h4.07l-.018.192c-.103.957-.416 1.908-.94 2.852-.558 1.006-1.348 1.921-2.37 2.744-1.021.823-2.274 1.482-3.759 1.977-1.484.495-3.192.743-5.123.743-2.554 0-4.805-.56-6.752-1.678-1.947-1.118-3.475-2.668-4.585-4.65-1.109-1.98-1.664-4.257-1.664-6.83 0-2.604.56-4.893 1.676-6.866a12.105 12.105 0 0 1 4.621-4.637c1.963-1.119 4.206-1.678 6.728-1.678zm-94.928 0c1.852 0 3.56.296 5.124.887 1.564.59 2.82 1.45 3.77 2.576.95 1.127 1.425 2.513 1.425 4.158v.48h-4.07v-.36l-.002-.138c-.028-.864-.323-1.581-.884-2.15-.59-.6-1.356-1.047-2.298-1.343a10.018 10.018 0 0 0-3.017-.443c-1.005 0-1.995.108-2.969.323-.973.216-1.78.572-2.418 1.067-.638.495-.957 1.174-.957 2.037s.299 1.554.897 2.073c.599.52 1.445.943 2.538 1.27 1.094.328 2.382.627 3.867.9 1.325.239 2.578.538 3.759.898 1.18.36 2.222.819 3.124 1.378.902.56 1.612 1.266 2.13 2.12.52.856.779 1.898.779 3.129 0 1.246-.283 2.332-.85 3.259s-1.349 1.702-2.346 2.325c-.998.623-2.147 1.09-3.448 1.402a17.79 17.79 0 0 1-4.154.467c-1.532 0-2.949-.164-4.25-.491-1.3-.328-2.433-.807-3.399-1.438-.966-.631-1.716-1.41-2.25-2.337-.535-.927-.803-1.99-.803-3.187v-.743h4.094v.527l.002.124c.038 1.233.636 2.179 1.794 2.836 1.197.679 2.833 1.018 4.908 1.018 1.277 0 2.418-.128 3.424-.383 1.005-.256 1.8-.647 2.382-1.175.582-.527.874-1.19.874-1.989 0-1.326-.619-2.273-1.856-2.84-1.237-.567-3.084-1.058-5.542-1.474a29.636 29.636 0 0 1-3.687-.875c-1.165-.359-2.199-.826-3.1-1.402-.902-.575-1.613-1.29-2.131-2.145-.52-.854-.779-1.88-.779-3.08 0-1.549.46-2.863 1.377-3.942.918-1.078 2.159-1.901 3.723-2.468s3.304-.851 5.22-.851zm27.413 0c1.852 0 3.504.284 4.956.85 1.453.568 2.682 1.323 3.687 2.266 1.006.942 1.776 1.977 2.31 3.103.535 1.127.803 2.25.803 3.368v.167h-4.046l-.002-.062a2.038 2.038 0 0 0-.022-.213 30.479 30.479 0 0 1-.048-.324A5.202 5.202 0 0 0 126.332 54c-.687-.807-1.58-1.442-2.682-1.905-1.101-.464-2.354-.695-3.759-.695-1.58 0-3.044.34-4.393 1.018-1.349.68-2.434 1.71-3.256 3.092-.822 1.382-1.233 3.128-1.233 5.237 0 2.093.407 3.842 1.221 5.248.814 1.406 1.896 2.465 3.244 3.176 1.349.71 2.821 1.066 4.417 1.066 1.724 0 3.145-.271 4.262-.815 1.117-.543 1.96-1.266 2.526-2.169a6.104 6.104 0 0 0 .946-2.911h4.046l-.003.203c-.028 1.082-.283 2.16-.763 3.236-.511 1.142-1.261 2.18-2.25 3.115-.99.935-2.216 1.682-3.676 2.241-1.46.56-3.148.839-5.064.839-2.426 0-4.628-.531-6.607-1.594-1.98-1.062-3.548-2.584-4.705-4.565-1.157-1.982-1.736-4.338-1.736-7.07 0-2.733.579-5.077 1.736-7.034 1.157-1.958 2.725-3.456 4.705-4.494 1.979-1.039 4.181-1.558 6.607-1.558zm27.797 0c1.995 0 3.814.427 5.458 1.282l.182.097a9.432 9.432 0 0 1 2.534 2.017l.085.098v-3.11h4.094v25.452h-4.094v-2.979l-.036.042a9.193 9.193 0 0 1-2.765 2.158c-1.644.839-3.463 1.258-5.458 1.258-1.565 0-3.089-.264-4.573-.79a11.611 11.611 0 0 1-4.01-2.433c-1.19-1.095-2.135-2.477-2.838-4.147-.702-1.67-1.053-3.654-1.053-5.955 0-2.205.355-4.122 1.065-5.752s1.66-2.98 2.85-4.05a11.892 11.892 0 0 1 4.01-2.397c1.484-.527 3-.791 4.549-.791zm22.026-7.717v33.553h-4.022V39.944h4.022zm-21.572 11.408a9.97 9.97 0 0 0-4.225.91c-1.317.608-2.382 1.59-3.196 2.948-.814 1.358-1.221 3.172-1.221 5.44 0 2.27.407 4.115 1.22 5.537.815 1.422 1.88 2.46 3.197 3.116a9.359 9.359 0 0 0 4.225.982c1.39 0 2.674-.311 3.855-.934 1.181-.624 2.135-1.534 2.861-2.733.726-1.198 1.09-2.644 1.09-4.338v-3.067l-.002-.204c-.028-1.62-.39-2.99-1.088-4.11-.726-1.167-1.684-2.05-2.873-2.648a8.42 8.42 0 0 0-3.843-.9zm39.313 0c-1.804 0-3.392.383-4.765 1.15a8.102 8.102 0 0 0-3.208 3.248l-.09.169a9.205 9.205 0 0 0-.875 2.636l-.035.202h17.115l-.015-.196a8.652 8.652 0 0 0-.885-3.17c-.615-1.223-1.528-2.202-2.741-2.937-1.213-.735-2.714-1.102-4.501-1.102z" fill="#0A143C"/>
    </g>
</svg>
